<mxfile host="app.diagrams.net" modified="2023-05-28T22:21:00.971Z" agent="Mozilla/5.0 (Windows NT 10.0; Win64; x64) AppleWebKit/537.36 (KHTML, like Gecko) Chrome/113.0.0.0 Safari/537.36" etag="GZJjOEC3NEwe-5icQrDr" version="21.3.4" type="github">
  <diagram name="Page-1" id="oRiMBH-PoCyd57MC5CE8">
    <mxGraphModel dx="1467" dy="753" grid="1" gridSize="10" guides="1" tooltips="1" connect="1" arrows="1" fold="1" page="1" pageScale="1" pageWidth="827" pageHeight="1169" math="0" shadow="0">
      <root>
        <mxCell id="0" />
        <mxCell id="1" parent="0" />
        <mxCell id="ZYFprSUHb7iBvERMPRpS-1" value="" style="ellipse;whiteSpace=wrap;html=1;" vertex="1" parent="1">
          <mxGeometry x="60" y="10" width="90" height="70" as="geometry" />
        </mxCell>
        <mxCell id="ZYFprSUHb7iBvERMPRpS-2" value="" style="rounded=0;whiteSpace=wrap;html=1;" vertex="1" parent="1">
          <mxGeometry x="55" y="100" width="100" height="40" as="geometry" />
        </mxCell>
        <mxCell id="ZYFprSUHb7iBvERMPRpS-3" value="" style="rhombus;whiteSpace=wrap;html=1;" vertex="1" parent="1">
          <mxGeometry x="70" y="160" width="80" height="80" as="geometry" />
        </mxCell>
        <mxCell id="ZYFprSUHb7iBvERMPRpS-9" value="" style="edgeStyle=orthogonalEdgeStyle;rounded=0;orthogonalLoop=1;jettySize=auto;html=1;" edge="1" parent="1" source="ZYFprSUHb7iBvERMPRpS-4" target="ZYFprSUHb7iBvERMPRpS-7">
          <mxGeometry relative="1" as="geometry" />
        </mxCell>
        <mxCell id="ZYFprSUHb7iBvERMPRpS-4" value="START" style="text;html=1;strokeColor=none;fillColor=none;align=center;verticalAlign=middle;whiteSpace=wrap;rounded=0;" vertex="1" parent="1">
          <mxGeometry x="90" y="35" width="40" height="25" as="geometry" />
        </mxCell>
        <mxCell id="ZYFprSUHb7iBvERMPRpS-8" value="" style="edgeStyle=orthogonalEdgeStyle;rounded=0;orthogonalLoop=1;jettySize=auto;html=1;" edge="1" parent="1" source="ZYFprSUHb7iBvERMPRpS-7" target="ZYFprSUHb7iBvERMPRpS-3">
          <mxGeometry relative="1" as="geometry" />
        </mxCell>
        <mxCell id="ZYFprSUHb7iBvERMPRpS-7" value="READ a,b,c" style="text;html=1;strokeColor=none;fillColor=none;align=center;verticalAlign=middle;whiteSpace=wrap;rounded=0;" vertex="1" parent="1">
          <mxGeometry x="75" y="105" width="60" height="30" as="geometry" />
        </mxCell>
        <mxCell id="ZYFprSUHb7iBvERMPRpS-15" value="" style="edgeStyle=orthogonalEdgeStyle;rounded=0;orthogonalLoop=1;jettySize=auto;html=1;" edge="1" parent="1" source="ZYFprSUHb7iBvERMPRpS-11" target="ZYFprSUHb7iBvERMPRpS-14">
          <mxGeometry relative="1" as="geometry" />
        </mxCell>
        <mxCell id="ZYFprSUHb7iBvERMPRpS-23" value="" style="edgeStyle=orthogonalEdgeStyle;rounded=0;orthogonalLoop=1;jettySize=auto;html=1;" edge="1" parent="1" source="ZYFprSUHb7iBvERMPRpS-11" target="ZYFprSUHb7iBvERMPRpS-22">
          <mxGeometry relative="1" as="geometry" />
        </mxCell>
        <mxCell id="ZYFprSUHb7iBvERMPRpS-11" value="if&amp;nbsp;&lt;br&gt;a&amp;gt;b&amp;gt;c&lt;br&gt;&lt;span id=&quot;docs-internal-guid-500e0879-7fff-b8a8-8a22-9ab5bf044d62&quot;&gt;&lt;/span&gt;" style="text;html=1;strokeColor=none;fillColor=none;align=center;verticalAlign=middle;whiteSpace=wrap;rounded=0;" vertex="1" parent="1">
          <mxGeometry x="80" y="185" width="60" height="30" as="geometry" />
        </mxCell>
        <mxCell id="ZYFprSUHb7iBvERMPRpS-14" value="" style="shape=parallelogram;perimeter=parallelogramPerimeter;whiteSpace=wrap;html=1;fixedSize=1;" vertex="1" parent="1">
          <mxGeometry x="70" y="300" width="80" height="40" as="geometry" />
        </mxCell>
        <mxCell id="ZYFprSUHb7iBvERMPRpS-52" style="edgeStyle=orthogonalEdgeStyle;rounded=0;orthogonalLoop=1;jettySize=auto;html=1;entryX=-0.002;entryY=0.655;entryDx=0;entryDy=0;entryPerimeter=0;" edge="1" parent="1" source="ZYFprSUHb7iBvERMPRpS-16" target="ZYFprSUHb7iBvERMPRpS-43">
          <mxGeometry relative="1" as="geometry" />
        </mxCell>
        <mxCell id="ZYFprSUHb7iBvERMPRpS-16" value="print&lt;br&gt;a,b,c" style="text;html=1;strokeColor=none;fillColor=none;align=center;verticalAlign=middle;whiteSpace=wrap;rounded=0;" vertex="1" parent="1">
          <mxGeometry x="75" y="310" width="55" height="30" as="geometry" />
        </mxCell>
        <mxCell id="ZYFprSUHb7iBvERMPRpS-29" style="edgeStyle=orthogonalEdgeStyle;rounded=0;orthogonalLoop=1;jettySize=auto;html=1;entryX=0.5;entryY=0;entryDx=0;entryDy=0;" edge="1" parent="1" source="ZYFprSUHb7iBvERMPRpS-22" target="ZYFprSUHb7iBvERMPRpS-28">
          <mxGeometry relative="1" as="geometry" />
        </mxCell>
        <mxCell id="ZYFprSUHb7iBvERMPRpS-22" value="" style="rhombus;whiteSpace=wrap;html=1;" vertex="1" parent="1">
          <mxGeometry x="210" y="180" width="80" height="80" as="geometry" />
        </mxCell>
        <mxCell id="ZYFprSUHb7iBvERMPRpS-26" value="" style="edgeStyle=orthogonalEdgeStyle;rounded=0;orthogonalLoop=1;jettySize=auto;html=1;" edge="1" parent="1" source="ZYFprSUHb7iBvERMPRpS-24" target="ZYFprSUHb7iBvERMPRpS-25">
          <mxGeometry relative="1" as="geometry" />
        </mxCell>
        <mxCell id="ZYFprSUHb7iBvERMPRpS-24" value="if&lt;br&gt;a&amp;lt;c&amp;lt;b&lt;br&gt;&lt;span id=&quot;docs-internal-guid-8ae573e3-7fff-df7b-9166-f6ecc83a6579&quot;&gt;&lt;/span&gt;" style="text;html=1;strokeColor=none;fillColor=none;align=center;verticalAlign=middle;whiteSpace=wrap;rounded=0;" vertex="1" parent="1">
          <mxGeometry x="220" y="205" width="60" height="30" as="geometry" />
        </mxCell>
        <mxCell id="ZYFprSUHb7iBvERMPRpS-49" style="edgeStyle=orthogonalEdgeStyle;rounded=0;orthogonalLoop=1;jettySize=auto;html=1;entryX=0;entryY=0;entryDx=0;entryDy=0;" edge="1" parent="1" source="ZYFprSUHb7iBvERMPRpS-25" target="ZYFprSUHb7iBvERMPRpS-43">
          <mxGeometry relative="1" as="geometry">
            <mxPoint x="230.00000000000023" y="370" as="targetPoint" />
            <Array as="points">
              <mxPoint x="240" y="360" />
              <mxPoint x="231" y="360" />
              <mxPoint x="231" y="370" />
              <mxPoint x="266" y="370" />
            </Array>
          </mxGeometry>
        </mxCell>
        <mxCell id="ZYFprSUHb7iBvERMPRpS-25" value="print&lt;br&gt;a,c,b" style="shape=parallelogram;perimeter=parallelogramPerimeter;whiteSpace=wrap;html=1;fixedSize=1;" vertex="1" parent="1">
          <mxGeometry x="190" y="300" width="100" height="40" as="geometry" />
        </mxCell>
        <mxCell id="ZYFprSUHb7iBvERMPRpS-31" value="" style="edgeStyle=orthogonalEdgeStyle;rounded=0;orthogonalLoop=1;jettySize=auto;html=1;" edge="1" parent="1" source="ZYFprSUHb7iBvERMPRpS-28" target="ZYFprSUHb7iBvERMPRpS-30">
          <mxGeometry relative="1" as="geometry" />
        </mxCell>
        <mxCell id="ZYFprSUHb7iBvERMPRpS-33" value="" style="edgeStyle=orthogonalEdgeStyle;rounded=0;orthogonalLoop=1;jettySize=auto;html=1;" edge="1" parent="1" source="ZYFprSUHb7iBvERMPRpS-28" target="ZYFprSUHb7iBvERMPRpS-32">
          <mxGeometry relative="1" as="geometry" />
        </mxCell>
        <mxCell id="ZYFprSUHb7iBvERMPRpS-28" value="if&lt;br&gt;b&amp;lt;a&amp;lt;c" style="rhombus;whiteSpace=wrap;html=1;" vertex="1" parent="1">
          <mxGeometry x="310" y="235" width="80" height="80" as="geometry" />
        </mxCell>
        <mxCell id="ZYFprSUHb7iBvERMPRpS-50" style="edgeStyle=orthogonalEdgeStyle;rounded=0;orthogonalLoop=1;jettySize=auto;html=1;entryX=0.5;entryY=0;entryDx=0;entryDy=0;" edge="1" parent="1" source="ZYFprSUHb7iBvERMPRpS-30" target="ZYFprSUHb7iBvERMPRpS-43">
          <mxGeometry relative="1" as="geometry">
            <mxPoint x="330.0000000000002" y="420" as="targetPoint" />
            <Array as="points">
              <mxPoint x="340" y="410" />
              <mxPoint x="331" y="410" />
              <mxPoint x="331" y="420" />
            </Array>
          </mxGeometry>
        </mxCell>
        <mxCell id="ZYFprSUHb7iBvERMPRpS-30" value="print&lt;br&gt;b,a,c" style="shape=parallelogram;perimeter=parallelogramPerimeter;whiteSpace=wrap;html=1;fixedSize=1;" vertex="1" parent="1">
          <mxGeometry x="290" y="350" width="100" height="40" as="geometry" />
        </mxCell>
        <mxCell id="ZYFprSUHb7iBvERMPRpS-35" value="" style="edgeStyle=orthogonalEdgeStyle;rounded=0;orthogonalLoop=1;jettySize=auto;html=1;" edge="1" parent="1" source="ZYFprSUHb7iBvERMPRpS-32" target="ZYFprSUHb7iBvERMPRpS-34">
          <mxGeometry relative="1" as="geometry" />
        </mxCell>
        <mxCell id="ZYFprSUHb7iBvERMPRpS-37" value="" style="edgeStyle=orthogonalEdgeStyle;rounded=0;orthogonalLoop=1;jettySize=auto;html=1;" edge="1" parent="1" source="ZYFprSUHb7iBvERMPRpS-32" target="ZYFprSUHb7iBvERMPRpS-36">
          <mxGeometry relative="1" as="geometry" />
        </mxCell>
        <mxCell id="ZYFprSUHb7iBvERMPRpS-32" value="if&amp;nbsp;&lt;br&gt;b&amp;lt;c&amp;lt;a" style="rhombus;whiteSpace=wrap;html=1;" vertex="1" parent="1">
          <mxGeometry x="430" y="270" width="80" height="80" as="geometry" />
        </mxCell>
        <mxCell id="ZYFprSUHb7iBvERMPRpS-51" style="edgeStyle=orthogonalEdgeStyle;rounded=0;orthogonalLoop=1;jettySize=auto;html=1;entryX=1;entryY=0;entryDx=0;entryDy=0;" edge="1" parent="1" source="ZYFprSUHb7iBvERMPRpS-34" target="ZYFprSUHb7iBvERMPRpS-43">
          <mxGeometry relative="1" as="geometry">
            <mxPoint x="461.75" y="450" as="targetPoint" />
            <Array as="points">
              <mxPoint x="470" y="470" />
              <mxPoint x="420" y="470" />
              <mxPoint x="420" y="522" />
            </Array>
          </mxGeometry>
        </mxCell>
        <mxCell id="ZYFprSUHb7iBvERMPRpS-34" value="print&lt;br&gt;b,c,a" style="shape=parallelogram;perimeter=parallelogramPerimeter;whiteSpace=wrap;html=1;fixedSize=1;" vertex="1" parent="1">
          <mxGeometry x="420" y="390" width="100" height="40" as="geometry" />
        </mxCell>
        <mxCell id="ZYFprSUHb7iBvERMPRpS-39" value="" style="edgeStyle=orthogonalEdgeStyle;rounded=0;orthogonalLoop=1;jettySize=auto;html=1;" edge="1" parent="1" source="ZYFprSUHb7iBvERMPRpS-36" target="ZYFprSUHb7iBvERMPRpS-38">
          <mxGeometry relative="1" as="geometry" />
        </mxCell>
        <mxCell id="ZYFprSUHb7iBvERMPRpS-41" value="" style="edgeStyle=orthogonalEdgeStyle;rounded=0;orthogonalLoop=1;jettySize=auto;html=1;" edge="1" parent="1" source="ZYFprSUHb7iBvERMPRpS-36" target="ZYFprSUHb7iBvERMPRpS-40">
          <mxGeometry relative="1" as="geometry" />
        </mxCell>
        <mxCell id="ZYFprSUHb7iBvERMPRpS-36" value="if&lt;br&gt;c&amp;lt;a&amp;lt;b" style="rhombus;whiteSpace=wrap;html=1;" vertex="1" parent="1">
          <mxGeometry x="580" y="305" width="80" height="80" as="geometry" />
        </mxCell>
        <mxCell id="ZYFprSUHb7iBvERMPRpS-53" style="edgeStyle=orthogonalEdgeStyle;rounded=0;orthogonalLoop=1;jettySize=auto;html=1;entryX=1;entryY=0.5;entryDx=0;entryDy=0;" edge="1" parent="1" source="ZYFprSUHb7iBvERMPRpS-38" target="ZYFprSUHb7iBvERMPRpS-43">
          <mxGeometry relative="1" as="geometry" />
        </mxCell>
        <mxCell id="ZYFprSUHb7iBvERMPRpS-38" value="print&lt;br&gt;c,a,b" style="shape=parallelogram;perimeter=parallelogramPerimeter;whiteSpace=wrap;html=1;fixedSize=1;" vertex="1" parent="1">
          <mxGeometry x="570" y="420" width="100" height="40" as="geometry" />
        </mxCell>
        <mxCell id="ZYFprSUHb7iBvERMPRpS-54" style="edgeStyle=orthogonalEdgeStyle;rounded=0;orthogonalLoop=1;jettySize=auto;html=1;entryX=0.5;entryY=1;entryDx=0;entryDy=0;" edge="1" parent="1" source="ZYFprSUHb7iBvERMPRpS-40" target="ZYFprSUHb7iBvERMPRpS-43">
          <mxGeometry relative="1" as="geometry">
            <Array as="points">
              <mxPoint x="740" y="640" />
              <mxPoint x="330" y="640" />
            </Array>
          </mxGeometry>
        </mxCell>
        <mxCell id="ZYFprSUHb7iBvERMPRpS-40" value="print&amp;nbsp;&lt;br&gt;c,b,a" style="shape=parallelogram;perimeter=parallelogramPerimeter;whiteSpace=wrap;html=1;fixedSize=1;" vertex="1" parent="1">
          <mxGeometry x="700" y="320" width="110" height="50" as="geometry" />
        </mxCell>
        <mxCell id="ZYFprSUHb7iBvERMPRpS-43" value="END" style="ellipse;whiteSpace=wrap;html=1;" vertex="1" parent="1">
          <mxGeometry x="240" y="505" width="180" height="115" as="geometry" />
        </mxCell>
        <mxCell id="ZYFprSUHb7iBvERMPRpS-48" style="edgeStyle=orthogonalEdgeStyle;rounded=0;orthogonalLoop=1;jettySize=auto;html=1;exitX=0.75;exitY=0;exitDx=0;exitDy=0;entryX=0.5;entryY=0;entryDx=0;entryDy=0;" edge="1" parent="1" source="ZYFprSUHb7iBvERMPRpS-40" target="ZYFprSUHb7iBvERMPRpS-40">
          <mxGeometry relative="1" as="geometry" />
        </mxCell>
      </root>
    </mxGraphModel>
  </diagram>
</mxfile>
